<mxfile host="app.diagrams.net" modified="2024-04-21T19:46:19.280Z" agent="Mozilla/5.0 (Windows NT 10.0; Win64; x64) AppleWebKit/537.36 (KHTML, like Gecko) Chrome/123.0.0.0 Safari/537.36" etag="KcpIWzrjSL6RAwc_YGBI" version="24.0.8" type="google">
  <diagram name="Página-1" id="Nlu5PAiu-yHBsMzaG4zH">
    <mxGraphModel grid="0" page="1" gridSize="10" guides="1" tooltips="1" connect="1" arrows="1" fold="1" pageScale="1" pageWidth="1169" pageHeight="827" math="0" shadow="0">
      <root>
        <mxCell id="0" />
        <mxCell id="1" parent="0" />
        <mxCell id="M4IFY2mAinfSHcPKy_Fx-49" style="edgeStyle=orthogonalEdgeStyle;rounded=0;orthogonalLoop=1;jettySize=auto;html=1;exitX=0.25;exitY=1;exitDx=0;exitDy=0;entryX=0.25;entryY=0;entryDx=0;entryDy=0;strokeColor=#007FFF;strokeWidth=3;" edge="1" parent="1" source="M4IFY2mAinfSHcPKy_Fx-29" target="M4IFY2mAinfSHcPKy_Fx-31">
          <mxGeometry relative="1" as="geometry" />
        </mxCell>
        <mxCell id="M4IFY2mAinfSHcPKy_Fx-52" value="" style="edgeStyle=orthogonalEdgeStyle;rounded=0;orthogonalLoop=1;jettySize=auto;html=1;strokeColor=#00CC00;strokeWidth=3;" edge="1" parent="1" source="M4IFY2mAinfSHcPKy_Fx-29" target="M4IFY2mAinfSHcPKy_Fx-31">
          <mxGeometry relative="1" as="geometry" />
        </mxCell>
        <mxCell id="M4IFY2mAinfSHcPKy_Fx-53" style="edgeStyle=orthogonalEdgeStyle;rounded=0;orthogonalLoop=1;jettySize=auto;html=1;exitX=0.75;exitY=1;exitDx=0;exitDy=0;entryX=0.75;entryY=0;entryDx=0;entryDy=0;strokeColor=#FF8000;strokeWidth=3;" edge="1" parent="1" source="M4IFY2mAinfSHcPKy_Fx-29" target="M4IFY2mAinfSHcPKy_Fx-31">
          <mxGeometry relative="1" as="geometry" />
        </mxCell>
        <mxCell id="M4IFY2mAinfSHcPKy_Fx-29" value="&lt;div&gt;DOSIFICACIÓN DE MATERIAS PRIMAS&lt;br&gt;&lt;/div&gt;" style="rounded=1;whiteSpace=wrap;html=1;strokeWidth=6;" vertex="1" parent="1">
          <mxGeometry x="593" y="31" width="120" height="60" as="geometry" />
        </mxCell>
        <mxCell id="M4IFY2mAinfSHcPKy_Fx-31" value="PREPARACIÓN DE PASTA HÚMEDA" style="whiteSpace=wrap;html=1;strokeWidth=6;" vertex="1" parent="1">
          <mxGeometry x="593" y="142" width="120" height="60" as="geometry" />
        </mxCell>
        <mxCell id="M4IFY2mAinfSHcPKy_Fx-68" style="edgeStyle=orthogonalEdgeStyle;rounded=0;orthogonalLoop=1;jettySize=auto;html=1;exitX=0;exitY=0.75;exitDx=0;exitDy=0;entryX=0.75;entryY=0;entryDx=0;entryDy=0;strokeColor=#00CC00;strokeWidth=3;" edge="1" parent="1" source="M4IFY2mAinfSHcPKy_Fx-35" target="M4IFY2mAinfSHcPKy_Fx-36">
          <mxGeometry relative="1" as="geometry" />
        </mxCell>
        <mxCell id="M4IFY2mAinfSHcPKy_Fx-33" value="PRENSADO" style="rounded=1;whiteSpace=wrap;html=1;strokeWidth=6;" vertex="1" parent="1">
          <mxGeometry x="593" y="254" width="120" height="60" as="geometry" />
        </mxCell>
        <mxCell id="M4IFY2mAinfSHcPKy_Fx-70" value="" style="edgeStyle=orthogonalEdgeStyle;rounded=0;orthogonalLoop=1;jettySize=auto;html=1;exitX=0.75;exitY=1;exitDx=0;exitDy=0;entryX=0.75;entryY=0;entryDx=0;entryDy=0;strokeColor=#FF8000;strokeWidth=3;" edge="1" parent="1" source="M4IFY2mAinfSHcPKy_Fx-35" target="M4IFY2mAinfSHcPKy_Fx-37">
          <mxGeometry relative="1" as="geometry" />
        </mxCell>
        <mxCell id="M4IFY2mAinfSHcPKy_Fx-79" style="edgeStyle=orthogonalEdgeStyle;rounded=0;orthogonalLoop=1;jettySize=auto;html=1;exitX=0;exitY=0.25;exitDx=0;exitDy=0;entryX=0.25;entryY=0;entryDx=0;entryDy=0;strokeColor=#007FFF;strokeWidth=3;" edge="1" parent="1" source="M4IFY2mAinfSHcPKy_Fx-35" target="M4IFY2mAinfSHcPKy_Fx-36">
          <mxGeometry relative="1" as="geometry" />
        </mxCell>
        <mxCell id="M4IFY2mAinfSHcPKy_Fx-35" value="&lt;div&gt;SECADO&lt;/div&gt;" style="rounded=1;whiteSpace=wrap;html=1;strokeWidth=6;" vertex="1" parent="1">
          <mxGeometry x="593" y="365" width="120" height="60" as="geometry" />
        </mxCell>
        <mxCell id="M4IFY2mAinfSHcPKy_Fx-80" style="edgeStyle=orthogonalEdgeStyle;rounded=0;orthogonalLoop=1;jettySize=auto;html=1;exitX=0.75;exitY=1;exitDx=0;exitDy=0;entryX=0;entryY=0.25;entryDx=0;entryDy=0;strokeColor=#00CC00;strokeWidth=3;" edge="1" parent="1" source="M4IFY2mAinfSHcPKy_Fx-36" target="M4IFY2mAinfSHcPKy_Fx-37">
          <mxGeometry relative="1" as="geometry" />
        </mxCell>
        <mxCell id="M4IFY2mAinfSHcPKy_Fx-81" style="edgeStyle=orthogonalEdgeStyle;rounded=0;orthogonalLoop=1;jettySize=auto;html=1;exitX=0.25;exitY=1;exitDx=0;exitDy=0;entryX=0;entryY=0.75;entryDx=0;entryDy=0;strokeColor=#007FFF;strokeWidth=3;" edge="1" parent="1" source="M4IFY2mAinfSHcPKy_Fx-36" target="M4IFY2mAinfSHcPKy_Fx-37">
          <mxGeometry relative="1" as="geometry" />
        </mxCell>
        <mxCell id="M4IFY2mAinfSHcPKy_Fx-36" value="ESMALTADO" style="rounded=1;whiteSpace=wrap;html=1;strokeWidth=6;" vertex="1" parent="1">
          <mxGeometry x="429" y="418" width="120" height="60" as="geometry" />
        </mxCell>
        <mxCell id="M4IFY2mAinfSHcPKy_Fx-71" value="" style="edgeStyle=orthogonalEdgeStyle;rounded=0;orthogonalLoop=1;jettySize=auto;html=1;strokeColor=#FF8000;entryX=0;entryY=0.25;entryDx=0;entryDy=0;exitX=1;exitY=0.25;exitDx=0;exitDy=0;strokeWidth=3;" edge="1" parent="1" source="M4IFY2mAinfSHcPKy_Fx-37" target="M4IFY2mAinfSHcPKy_Fx-38">
          <mxGeometry relative="1" as="geometry" />
        </mxCell>
        <mxCell id="M4IFY2mAinfSHcPKy_Fx-84" style="edgeStyle=orthogonalEdgeStyle;rounded=0;orthogonalLoop=1;jettySize=auto;html=1;exitX=1;exitY=0.75;exitDx=0;exitDy=0;entryX=0;entryY=0.75;entryDx=0;entryDy=0;strokeColor=#00CC00;strokeWidth=3;" edge="1" parent="1" source="M4IFY2mAinfSHcPKy_Fx-37" target="M4IFY2mAinfSHcPKy_Fx-38">
          <mxGeometry relative="1" as="geometry" />
        </mxCell>
        <mxCell id="M4IFY2mAinfSHcPKy_Fx-88" style="edgeStyle=orthogonalEdgeStyle;rounded=0;orthogonalLoop=1;jettySize=auto;html=1;exitX=0.25;exitY=1;exitDx=0;exitDy=0;entryX=0.5;entryY=0;entryDx=0;entryDy=0;strokeColor=#007FFF;strokeWidth=3;" edge="1" parent="1" source="M4IFY2mAinfSHcPKy_Fx-37" target="M4IFY2mAinfSHcPKy_Fx-40">
          <mxGeometry relative="1" as="geometry" />
        </mxCell>
        <mxCell id="M4IFY2mAinfSHcPKy_Fx-37" value="COCCIÓN" style="rounded=1;whiteSpace=wrap;html=1;strokeWidth=6;" vertex="1" parent="1">
          <mxGeometry x="593" y="474" width="120" height="60" as="geometry" />
        </mxCell>
        <mxCell id="M4IFY2mAinfSHcPKy_Fx-90" value="" style="edgeStyle=orthogonalEdgeStyle;rounded=0;orthogonalLoop=1;jettySize=auto;html=1;strokeColor=#00CC00;strokeWidth=3;exitX=0.25;exitY=1;exitDx=0;exitDy=0;" edge="1" parent="1" source="M4IFY2mAinfSHcPKy_Fx-38" target="M4IFY2mAinfSHcPKy_Fx-41">
          <mxGeometry relative="1" as="geometry" />
        </mxCell>
        <mxCell id="M4IFY2mAinfSHcPKy_Fx-38" value="PULIDO" style="rounded=1;whiteSpace=wrap;html=1;strokeWidth=6;" vertex="1" parent="1">
          <mxGeometry x="797" y="474" width="120" height="60" as="geometry" />
        </mxCell>
        <mxCell id="M4IFY2mAinfSHcPKy_Fx-75" value="" style="edgeStyle=orthogonalEdgeStyle;rounded=0;orthogonalLoop=1;jettySize=auto;html=1;entryX=0;entryY=0.5;entryDx=0;entryDy=0;exitX=0;exitY=0.5;exitDx=0;exitDy=0;strokeColor=#00FFFF;strokeWidth=3;" edge="1" parent="1" source="M4IFY2mAinfSHcPKy_Fx-39" target="M4IFY2mAinfSHcPKy_Fx-36">
          <mxGeometry relative="1" as="geometry">
            <mxPoint x="217.05263157894728" y="347" as="targetPoint" />
          </mxGeometry>
        </mxCell>
        <mxCell id="M4IFY2mAinfSHcPKy_Fx-39" value="PREPARACIÓN ESMALTE" style="rounded=1;whiteSpace=wrap;html=1;strokeWidth=6;" vertex="1" parent="1">
          <mxGeometry x="450" y="260" width="120" height="60" as="geometry" />
        </mxCell>
        <mxCell id="KJkR131vyTSl_IQ6Ljsr-6" style="edgeStyle=orthogonalEdgeStyle;rounded=0;orthogonalLoop=1;jettySize=auto;html=1;exitX=0.5;exitY=1;exitDx=0;exitDy=0;entryX=0.25;entryY=0;entryDx=0;entryDy=0;strokeWidth=3;strokeColor=#007fff;" edge="1" parent="1" source="M4IFY2mAinfSHcPKy_Fx-40" target="KJkR131vyTSl_IQ6Ljsr-1">
          <mxGeometry relative="1" as="geometry" />
        </mxCell>
        <mxCell id="M4IFY2mAinfSHcPKy_Fx-40" value="BALDOSA PORCELÁNICA" style="rounded=1;whiteSpace=wrap;html=1;strokeWidth=6;" vertex="1" parent="1">
          <mxGeometry x="427" y="580" width="120" height="60" as="geometry" />
        </mxCell>
        <mxCell id="KJkR131vyTSl_IQ6Ljsr-4" style="edgeStyle=orthogonalEdgeStyle;rounded=0;orthogonalLoop=1;jettySize=auto;html=1;exitX=0.5;exitY=1;exitDx=0;exitDy=0;entryX=0.5;entryY=0;entryDx=0;entryDy=0;strokeColor=#00cc00;strokeWidth=3;" edge="1" parent="1" source="M4IFY2mAinfSHcPKy_Fx-41" target="KJkR131vyTSl_IQ6Ljsr-1">
          <mxGeometry relative="1" as="geometry" />
        </mxCell>
        <mxCell id="M4IFY2mAinfSHcPKy_Fx-41" value="BALDOSA PORCELÁNICA PULIDA" style="rounded=1;whiteSpace=wrap;html=1;strokeWidth=6;" vertex="1" parent="1">
          <mxGeometry x="600" y="587" width="120" height="60" as="geometry" />
        </mxCell>
        <mxCell id="KJkR131vyTSl_IQ6Ljsr-5" style="edgeStyle=orthogonalEdgeStyle;rounded=0;orthogonalLoop=1;jettySize=auto;html=1;exitX=0.5;exitY=1;exitDx=0;exitDy=0;entryX=0.75;entryY=0;entryDx=0;entryDy=0;strokeWidth=3;strokeColor=#ff8000;" edge="1" parent="1" source="M4IFY2mAinfSHcPKy_Fx-42" target="KJkR131vyTSl_IQ6Ljsr-1">
          <mxGeometry relative="1" as="geometry">
            <Array as="points">
              <mxPoint x="890" y="682" />
              <mxPoint x="690" y="682" />
            </Array>
          </mxGeometry>
        </mxCell>
        <mxCell id="M4IFY2mAinfSHcPKy_Fx-42" value="BALDOSA PORCELÁNICA TECNIFICADA" style="rounded=1;whiteSpace=wrap;html=1;strokeWidth=6;" vertex="1" parent="1">
          <mxGeometry x="830" y="580" width="120" height="60" as="geometry" />
        </mxCell>
        <mxCell id="M4IFY2mAinfSHcPKy_Fx-60" style="edgeStyle=orthogonalEdgeStyle;rounded=0;orthogonalLoop=1;jettySize=auto;html=1;exitX=0.25;exitY=1;exitDx=0;exitDy=0;entryX=0.25;entryY=0;entryDx=0;entryDy=0;strokeColor=#007FFF;strokeWidth=3;" edge="1" parent="1">
          <mxGeometry relative="1" as="geometry">
            <mxPoint x="622.87" y="202" as="sourcePoint" />
            <mxPoint x="622.87" y="253" as="targetPoint" />
          </mxGeometry>
        </mxCell>
        <mxCell id="M4IFY2mAinfSHcPKy_Fx-61" value="" style="edgeStyle=orthogonalEdgeStyle;rounded=0;orthogonalLoop=1;jettySize=auto;html=1;strokeColor=#00CC00;strokeWidth=3;" edge="1" parent="1">
          <mxGeometry relative="1" as="geometry">
            <mxPoint x="652.87" y="202" as="sourcePoint" />
            <mxPoint x="652.87" y="253" as="targetPoint" />
          </mxGeometry>
        </mxCell>
        <mxCell id="M4IFY2mAinfSHcPKy_Fx-62" style="edgeStyle=orthogonalEdgeStyle;rounded=0;orthogonalLoop=1;jettySize=auto;html=1;exitX=0.75;exitY=1;exitDx=0;exitDy=0;entryX=0.75;entryY=0;entryDx=0;entryDy=0;strokeColor=#FF8000;strokeWidth=3;" edge="1" parent="1">
          <mxGeometry relative="1" as="geometry">
            <mxPoint x="682.87" y="202" as="sourcePoint" />
            <mxPoint x="682.87" y="253" as="targetPoint" />
          </mxGeometry>
        </mxCell>
        <mxCell id="M4IFY2mAinfSHcPKy_Fx-83" style="edgeStyle=orthogonalEdgeStyle;rounded=0;orthogonalLoop=1;jettySize=auto;html=1;exitX=0.5;exitY=1;exitDx=0;exitDy=0;entryX=0.457;entryY=0.045;entryDx=0;entryDy=0;entryPerimeter=0;strokeColor=#FF8000;strokeWidth=3;" edge="1" parent="1" source="M4IFY2mAinfSHcPKy_Fx-38" target="M4IFY2mAinfSHcPKy_Fx-42">
          <mxGeometry relative="1" as="geometry" />
        </mxCell>
        <mxCell id="M4IFY2mAinfSHcPKy_Fx-85" style="edgeStyle=orthogonalEdgeStyle;rounded=0;orthogonalLoop=1;jettySize=auto;html=1;exitX=0.25;exitY=1;exitDx=0;exitDy=0;entryX=0.25;entryY=0;entryDx=0;entryDy=0;strokeColor=#007FFF;strokeWidth=3;" edge="1" parent="1">
          <mxGeometry relative="1" as="geometry">
            <mxPoint x="622.79" y="314" as="sourcePoint" />
            <mxPoint x="622.79" y="365" as="targetPoint" />
          </mxGeometry>
        </mxCell>
        <mxCell id="M4IFY2mAinfSHcPKy_Fx-86" value="" style="edgeStyle=orthogonalEdgeStyle;rounded=0;orthogonalLoop=1;jettySize=auto;html=1;strokeColor=#00CC00;strokeWidth=3;" edge="1" parent="1">
          <mxGeometry relative="1" as="geometry">
            <mxPoint x="652.79" y="314" as="sourcePoint" />
            <mxPoint x="652.79" y="365" as="targetPoint" />
          </mxGeometry>
        </mxCell>
        <mxCell id="M4IFY2mAinfSHcPKy_Fx-87" style="edgeStyle=orthogonalEdgeStyle;rounded=0;orthogonalLoop=1;jettySize=auto;html=1;exitX=0.75;exitY=1;exitDx=0;exitDy=0;entryX=0.75;entryY=0;entryDx=0;entryDy=0;strokeColor=#FF8000;strokeWidth=3;" edge="1" parent="1">
          <mxGeometry relative="1" as="geometry">
            <mxPoint x="682.79" y="314" as="sourcePoint" />
            <mxPoint x="682.79" y="365" as="targetPoint" />
          </mxGeometry>
        </mxCell>
        <mxCell id="M4IFY2mAinfSHcPKy_Fx-91" value="&lt;div style=&quot;font-size: 20px;&quot;&gt;&lt;font style=&quot;font-size: 20px;&quot; color=&quot;#007fff&quot;&gt;BALDOSA PORCELÁNICA&lt;br&gt;&lt;/font&gt;&lt;/div&gt;&lt;div style=&quot;font-size: 20px;&quot;&gt;&lt;font style=&quot;font-size: 20px;&quot; color=&quot;#007fff&quot;&gt;&lt;br&gt;&lt;/font&gt;&lt;/div&gt;&lt;div style=&quot;font-size: 20px;&quot;&gt;&lt;font style=&quot;font-size: 20px;&quot; color=&quot;#00cc00&quot;&gt;BALDOSA PORCELÁNICA PULIDA&lt;/font&gt;&lt;/div&gt;&lt;div style=&quot;font-size: 20px;&quot;&gt;&lt;font style=&quot;font-size: 20px;&quot; color=&quot;#00cc00&quot;&gt;&lt;br&gt;&lt;/font&gt;&lt;/div&gt;&lt;div style=&quot;font-size: 20px;&quot;&gt;&lt;font style=&quot;font-size: 20px;&quot; color=&quot;#ff8000&quot;&gt;BALDOSA PORCELÁNICA TECNIFICADA&lt;/font&gt;&lt;/div&gt;" style="rounded=0;whiteSpace=wrap;html=1;strokeWidth=6;" vertex="1" parent="1">
          <mxGeometry x="241" y="31" width="268" height="212" as="geometry" />
        </mxCell>
        <mxCell id="KJkR131vyTSl_IQ6Ljsr-7" style="edgeStyle=orthogonalEdgeStyle;rounded=0;orthogonalLoop=1;jettySize=auto;html=1;exitX=0.25;exitY=1;exitDx=0;exitDy=0;entryX=0.25;entryY=0;entryDx=0;entryDy=0;strokeWidth=3;strokeColor=#007fff;" edge="1" parent="1" source="KJkR131vyTSl_IQ6Ljsr-1" target="KJkR131vyTSl_IQ6Ljsr-2">
          <mxGeometry relative="1" as="geometry" />
        </mxCell>
        <mxCell id="KJkR131vyTSl_IQ6Ljsr-8" style="edgeStyle=orthogonalEdgeStyle;rounded=0;orthogonalLoop=1;jettySize=auto;html=1;exitX=0.5;exitY=1;exitDx=0;exitDy=0;entryX=0.5;entryY=0;entryDx=0;entryDy=0;strokeColor=#00cc00;strokeWidth=3;" edge="1" parent="1" source="KJkR131vyTSl_IQ6Ljsr-1" target="KJkR131vyTSl_IQ6Ljsr-2">
          <mxGeometry relative="1" as="geometry" />
        </mxCell>
        <mxCell id="KJkR131vyTSl_IQ6Ljsr-9" style="edgeStyle=orthogonalEdgeStyle;rounded=0;orthogonalLoop=1;jettySize=auto;html=1;exitX=0.75;exitY=1;exitDx=0;exitDy=0;entryX=0.75;entryY=0;entryDx=0;entryDy=0;strokeWidth=3;strokeColor=#ff8000;" edge="1" parent="1" source="KJkR131vyTSl_IQ6Ljsr-1" target="KJkR131vyTSl_IQ6Ljsr-2">
          <mxGeometry relative="1" as="geometry" />
        </mxCell>
        <mxCell id="KJkR131vyTSl_IQ6Ljsr-1" value="CONTROL DE CALIDAD" style="rounded=1;whiteSpace=wrap;html=1;strokeWidth=6;" vertex="1" parent="1">
          <mxGeometry x="600" y="711" width="120" height="60" as="geometry" />
        </mxCell>
        <mxCell id="KJkR131vyTSl_IQ6Ljsr-10" style="edgeStyle=orthogonalEdgeStyle;rounded=0;orthogonalLoop=1;jettySize=auto;html=1;exitX=0.25;exitY=1;exitDx=0;exitDy=0;entryX=0.25;entryY=0;entryDx=0;entryDy=0;strokeWidth=3;strokeColor=#007fff;" edge="1" parent="1" source="KJkR131vyTSl_IQ6Ljsr-2" target="KJkR131vyTSl_IQ6Ljsr-3">
          <mxGeometry relative="1" as="geometry" />
        </mxCell>
        <mxCell id="KJkR131vyTSl_IQ6Ljsr-11" style="edgeStyle=orthogonalEdgeStyle;rounded=0;orthogonalLoop=1;jettySize=auto;html=1;exitX=0.5;exitY=1;exitDx=0;exitDy=0;entryX=0.5;entryY=0;entryDx=0;entryDy=0;strokeColor=#00cc00;strokeWidth=3;" edge="1" parent="1" source="KJkR131vyTSl_IQ6Ljsr-2" target="KJkR131vyTSl_IQ6Ljsr-3">
          <mxGeometry relative="1" as="geometry" />
        </mxCell>
        <mxCell id="KJkR131vyTSl_IQ6Ljsr-12" style="edgeStyle=orthogonalEdgeStyle;rounded=0;orthogonalLoop=1;jettySize=auto;html=1;exitX=0.75;exitY=1;exitDx=0;exitDy=0;entryX=0.75;entryY=0;entryDx=0;entryDy=0;strokeWidth=3;strokeColor=#ff8000;" edge="1" parent="1" source="KJkR131vyTSl_IQ6Ljsr-2" target="KJkR131vyTSl_IQ6Ljsr-3">
          <mxGeometry relative="1" as="geometry" />
        </mxCell>
        <mxCell id="KJkR131vyTSl_IQ6Ljsr-2" value="EMPAQUE EN CAJAS" style="rounded=1;whiteSpace=wrap;html=1;strokeWidth=6;" vertex="1" parent="1">
          <mxGeometry x="600" y="804" width="120" height="60" as="geometry" />
        </mxCell>
        <mxCell id="KJkR131vyTSl_IQ6Ljsr-3" value="ALMACENAMIENTO" style="rounded=1;whiteSpace=wrap;html=1;strokeWidth=6;" vertex="1" parent="1">
          <mxGeometry x="600" y="906" width="120" height="60" as="geometry" />
        </mxCell>
      </root>
    </mxGraphModel>
  </diagram>
</mxfile>
